<svg width="360" height="927" viewBox="0 0 360 927" fill="none" xmlns="http://www.w3.org/2000/svg">
<path fill-rule="evenodd" clip-rule="evenodd" d="M0 0H80.7479C78.5496 1.03992 76.2788 1.95933 73.9477 2.74726C72.9053 3.10245 71.8394 3.42383 70.7893 3.74043L70.7893 3.74044L70.789 3.74053C70.2871 3.89184 69.7889 4.04205 69.2986 4.19434C64.6405 5.59881 59.815 7.06035 55.4377 9.96775C48.9265 14.333 43.9996 21.447 39.2133 28.3761C39.0016 28.6798 38.7895 28.9847 38.5768 29.2902L38.5766 29.2906C37.3214 31.094 36.0491 32.9222 34.7636 34.6881C25.0718 47.8104 13.5507 56.8516 2.36543 60.1604C1.57435 60.3931 0.785505 60.5954 0 60.7678V0ZM0 117.355V61.2647C0.807071 61.0881 1.6177 60.8802 2.43071 60.6406C13.7255 57.3402 25.338 48.2221 35.1123 34.9803C36.398 33.2142 37.6705 31.3858 38.9258 29.5821L38.9259 29.582C39.1384 29.2766 39.3505 28.9719 39.562 28.6684C44.2904 21.8047 49.1837 14.7021 55.6034 10.4137C59.9138 7.5291 64.7058 6.07899 69.3304 4.68593C70.8891 4.24619 72.4723 3.7524 74.013 3.22742C76.6999 2.31919 79.3076 1.23795 81.818 0H147.245C137.209 16.6818 120.384 30.0946 100.496 36.9095C98.3185 37.6514 96.0989 38.362 93.9374 39.0072C87.3612 41.0195 80.5505 43.1118 74.3808 47.2237C65.2496 53.331 58.2956 63.208 51.5652 72.7674L51.4405 72.9446C49.4019 75.8773 47.2718 78.8868 45.1148 81.7684C31.5269 99.8182 15.5434 112.421 0 117.355ZM0 117.767V927H360V0H147.772C137.675 16.8902 120.682 30.4954 100.561 37.3897C99.0891 37.8912 97.5785 38.3642 96.0891 38.8305C95.3754 39.054 94.6665 39.2759 93.9692 39.4987C87.4264 41.4997 80.6827 43.5691 74.5375 47.627C65.4414 53.6952 58.4826 63.6026 51.7467 73.2056C49.6747 76.1497 47.5446 79.1592 45.4211 82.0295C31.7608 100.164 15.667 112.851 0 117.767ZM238.99 74.7862C238.99 74.491 238.898 74.122 238.713 73.6793L223.106 39.5312C222.847 38.9409 222.423 38.4797 221.833 38.1476C221.279 37.8155 220.689 37.6495 220.062 37.6495C219.434 37.6495 218.826 37.8155 218.235 38.1476C217.682 38.4797 217.276 38.9409 217.018 39.5312L201.41 73.6793C201.226 74.122 201.134 74.491 201.134 74.7862C201.134 75.4872 201.41 76.0776 201.964 76.5572C202.554 77.0369 203.218 77.2767 203.956 77.2767C204.436 77.2767 204.897 77.1476 205.34 76.8893C205.783 76.5941 206.115 76.1883 206.336 75.6717L209.989 67.3699L230.245 67.3699L233.898 75.6717C234.119 76.1883 234.433 76.5941 234.839 76.8893C235.282 77.1476 235.743 77.2767 236.223 77.2767C236.924 77.2767 237.551 77.0369 238.104 76.5572C238.695 76.0776 238.99 75.4872 238.99 74.7862ZM228.253 62.8316L212.037 62.8316L220.117 44.5123L228.253 62.8316ZM265.023 51.0431C263.215 49.8992 261.13 49.3273 258.769 49.3273C256.74 49.3273 254.95 49.7701 253.4 50.6556C251.851 51.5412 250.67 52.7957 249.858 54.4191V40.2507C249.858 39.4759 249.6 38.8671 249.083 38.4243C248.604 37.9447 247.958 37.7048 247.146 37.7048C246.298 37.7048 245.597 37.9447 245.043 38.4243C244.527 38.904 244.268 39.5497 244.268 40.3614L244.268 74.5648C244.268 75.3765 244.527 76.0407 245.043 76.5572C245.56 77.0369 246.242 77.2767 247.091 77.2767C247.94 77.2767 248.604 77.0369 249.083 76.5572C249.6 76.0407 249.858 75.3765 249.858 74.5648V72.351C250.67 73.9745 251.851 75.229 253.4 76.1145C254.95 76.9631 256.74 77.3874 258.769 77.3874C261.093 77.3874 263.16 76.7971 264.968 75.6164C266.812 74.4357 268.233 72.7753 269.229 70.6353C270.262 68.4953 270.779 66.0416 270.779 63.2744C270.779 60.4702 270.262 58.0166 269.229 55.9134C268.233 53.8103 266.831 52.1869 265.023 51.0431ZM263.03 70.4139C261.702 72.1112 259.839 72.9598 257.441 72.9598C255.005 72.9598 253.124 72.1296 251.795 70.4693C250.504 68.8089 249.858 66.4475 249.858 63.3851C249.858 60.3226 250.504 57.9612 251.795 56.3009C253.124 54.6405 255.005 53.8103 257.441 53.8103C259.876 53.8103 261.758 54.6405 263.086 56.3009C264.414 57.9243 265.078 60.2488 265.078 63.2744C265.078 66.3368 264.396 68.7167 263.03 70.4139ZM281.672 75.6717C283.701 76.8155 286.044 77.3874 288.701 77.3874C291.357 77.3874 293.682 76.8155 295.674 75.6717C297.704 74.5279 299.253 72.9045 300.323 70.8013C301.43 68.6613 301.984 66.1892 301.984 63.3851C301.984 60.544 301.43 58.0719 300.323 55.9688C299.253 53.8288 297.704 52.1869 295.674 51.0431C293.682 49.8993 291.357 49.3274 288.701 49.3274C286.044 49.3274 283.701 49.8993 281.672 51.0431C279.679 52.1869 278.13 53.8288 277.023 55.9688C275.953 58.0719 275.418 60.544 275.418 63.3851C275.418 66.1892 275.953 68.6613 277.023 70.8013C278.13 72.9045 279.679 74.5279 281.672 75.6717ZM294.346 70.5246C293.055 72.1481 291.173 72.9598 288.701 72.9598C286.229 72.9598 284.328 72.1481 283 70.5246C281.709 68.9011 281.063 66.5213 281.063 63.3851C281.063 60.2857 281.727 57.9243 283.056 56.3009C284.384 54.6405 286.266 53.8103 288.701 53.8103C291.136 53.8103 293.018 54.6405 294.346 56.3009C295.674 57.9243 296.338 60.2857 296.338 63.3851C296.338 66.5213 295.674 68.9011 294.346 70.5246ZM331.12 50.1575C330.641 49.6779 329.977 49.438 329.128 49.438C328.279 49.438 327.597 49.6963 327.08 50.2129C326.564 50.6925 326.305 51.3382 326.305 52.15V65.1561C326.305 67.4806 325.641 69.3439 324.313 70.746C323.021 72.1481 321.287 72.8491 319.11 72.8491C317.266 72.8491 315.9 72.3326 315.015 71.2995C314.129 70.2663 313.687 68.6613 313.687 66.4844L313.687 52.15C313.687 51.3013 313.428 50.6372 312.912 50.1575C312.432 49.6779 311.768 49.438 310.919 49.438C310.034 49.438 309.333 49.6779 308.816 50.1575C308.337 50.6372 308.097 51.3013 308.097 52.15V66.5397C308.097 73.7715 311.381 77.3874 317.948 77.3874C319.793 77.3874 321.453 76.9816 322.929 76.1698C324.442 75.3581 325.623 74.1774 326.471 72.6277V74.7309C326.471 75.5057 326.711 76.1329 327.191 76.6126C327.67 77.0554 328.298 77.2767 329.073 77.2767C329.921 77.2767 330.604 77.0369 331.12 76.5573C331.637 76.0776 331.895 75.4504 331.895 74.6755V52.15C331.895 51.3013 331.637 50.6372 331.12 50.1575ZM354.661 73.6793C354.329 73.3103 353.757 73.089 352.945 73.0152L351.395 72.9045C349.919 72.7938 348.813 72.3326 348.075 71.5208C347.374 70.7091 347.023 69.4362 347.023 67.702V54.3084H352.502C353.277 54.3084 353.867 54.124 354.273 53.755C354.716 53.386 354.937 52.851 354.937 52.15C354.937 51.4858 354.716 50.9693 354.273 50.6003C353.867 50.1944 353.277 49.9915 352.502 49.9915H347.023V44.2909C347.023 43.4423 346.765 42.7782 346.248 42.2985C345.732 41.8188 345.049 41.579 344.2 41.579C343.352 41.579 342.669 41.8188 342.153 42.2985C341.673 42.7782 341.433 43.4423 341.433 44.2909V49.9915H338.112C337.338 49.9915 336.729 50.1944 336.286 50.6003C335.88 50.9693 335.677 51.4858 335.677 52.15C335.677 53.5889 336.489 54.3084 338.112 54.3084H341.433V67.3146C341.433 70.4508 342.171 72.8307 343.647 74.4541C345.123 76.0407 347.355 76.9447 350.344 77.1661L351.838 77.2768C352.945 77.3505 353.775 77.203 354.329 76.834C354.919 76.4281 355.214 75.8562 355.214 75.1183C355.214 74.491 355.03 74.0114 354.661 73.6793Z" fill="black"/>
</svg>
