<svg width="1920" height="982" viewBox="0 0 1920 982" fill="none" xmlns="http://www.w3.org/2000/svg">
<path fill-rule="evenodd" clip-rule="evenodd" d="M531.573 0.5H351.436C348.837 10.191 345.223 19.6491 340.605 28.6794C315.661 77.6951 259.73 117.789 191.088 136.035C184.827 137.713 178.393 139.291 172.058 140.697C153.263 145.149 133.788 149.783 116.271 159.002C90.1809 172.708 70.294 195.407 51.0778 217.343C50.2304 218.299 49.3811 219.259 48.5298 220.22L48.494 220.261C43.3919 226.026 38.2196 231.87 32.994 237.515C22.4664 248.731 11.414 259.021 0 268.285V449.832C25.6909 432.303 50.5209 411.2 73.6439 387.046C82.4101 377.836 91.0668 368.218 99.3516 358.846L99.8591 358.279C127.212 327.728 155.473 296.162 192.582 276.644C217.656 263.502 245.335 256.816 272.061 250.384C280.846 248.322 289.866 246.051 298.714 243.68C394.915 217.757 473.484 161.964 508.88 94.2367C524.12 65.038 531.796 32.6294 531.573 0.5ZM0 451.526C26.1461 433.801 51.4024 412.399 74.8887 387.88C83.5188 378.707 92.1754 369.089 100.596 359.68C127.971 328.989 156.252 297.326 193.219 277.933C218.194 264.964 245.6 258.35 272.19 251.955C275.024 251.243 277.904 250.534 280.804 249.82L280.806 249.82L280.807 249.819L280.808 249.819C286.86 248.329 292.999 246.818 298.98 245.215C395.861 219.11 474.901 162.898 510.632 94.7888C525.891 65.4358 533.647 32.8126 533.447 0.5H1920V417.077C1914.91 419.515 1910.76 421.291 1907.81 422.016C1898.99 424.133 1887.02 418.413 1875.36 412.845L1875.22 412.778L1874.81 412.582C1865.17 407.955 1856.08 403.593 1848.69 403.513C1813.48 403.027 1780.99 431.219 1767.9 473.758C1757.98 505.957 1758.74 545.633 1770.14 585.501C1771.85 591.596 1773.84 597.724 1775.78 603.711L1775.78 603.737L1775.79 603.761L1775.88 604.034L1776.01 604.445C1782.34 624.156 1788.88 644.54 1787.86 665.604C1787.15 679.623 1783.09 693.147 1779.17 706.209L1779.17 706.21L1778.97 706.872C1777.62 711.244 1776.26 715.757 1775.03 720.289C1761.61 769.419 1765.95 818.416 1786.65 851.529C1800.76 874.004 1823.23 890.254 1848.31 896.164C1866.8 900.52 1886.85 899.955 1903.25 894.603C1908.87 892.816 1914.53 889.777 1920 886.768V981.207H0V451.526ZM1920 885.639V790.111C1909.81 785.394 1900.96 777.755 1894.8 768.176C1882.57 749.138 1879.94 720.899 1887.78 692.696C1888.18 691.283 1888.6 689.871 1889.01 688.469C1889.2 687.827 1889.39 687.188 1889.58 686.551C1889.74 686.021 1889.89 685.493 1890.04 684.968L1890.26 684.265C1892.5 676.877 1894.82 669.232 1895.19 661.34C1895.74 649.182 1891.84 637.398 1888.07 626.04C1887.96 625.709 1887.85 625.377 1887.74 625.043C1887.61 624.65 1887.48 624.256 1887.35 623.86C1886.42 621.066 1885.48 618.21 1884.67 615.373C1877.91 592.463 1877.4 569.64 1883.2 551.125C1889.52 530.947 1903.6 516.383 1920 512.121V418.079C1914.97 420.489 1910.86 422.255 1907.91 422.966C1898.94 425.11 1886.94 419.406 1875.3 413.868L1874.89 413.673C1865.17 408.984 1855.99 404.579 1848.57 404.506C1813.72 403.994 1781.55 431.938 1768.58 474.06C1758.68 506.117 1759.54 545.589 1770.84 585.156C1772.59 591.289 1774.6 597.6 1776.58 603.618C1783.01 623.536 1789.63 644.199 1788.59 665.552C1787.93 679.917 1783.76 693.624 1779.69 706.987L1779.66 707.103C1778.31 711.475 1776.95 715.989 1775.73 720.521C1762.35 769.296 1766.64 818.071 1787.24 850.882C1801.15 873.189 1823.49 889.35 1848.43 895.171C1866.85 899.518 1886.77 898.935 1903.02 893.635C1908.7 891.798 1914.41 888.71 1920 885.639ZM1920 512.958C1903.9 517.207 1890.08 531.564 1883.86 551.443C1878.14 569.793 1878.68 592.442 1885.34 615.165C1886.38 618.57 1887.52 622.042 1888.62 625.406L1888.62 625.411L1888.74 625.774L1888.76 625.828C1892.57 637.292 1896.51 649.123 1895.94 661.435C1895.54 669.692 1893.13 677.636 1890.76 685.293C1889.97 687.826 1889.18 690.416 1888.5 692.964C1880.75 720.943 1883.37 748.887 1895.44 767.788C1901.45 777.153 1910.08 784.655 1920 789.327V512.958ZM0 266.147C10.9146 257.206 21.4894 247.321 31.5767 236.581C36.8012 230.937 41.9724 225.094 47.0736 219.33L47.1076 219.292L47.4532 218.901C48.1904 218.068 48.9262 217.237 49.6604 216.409C69.1123 194.264 89.1353 171.528 115.597 157.577C133.387 148.285 152.998 143.614 171.929 139.125C173.921 138.639 175.946 138.159 177.986 137.675L177.989 137.674C182.256 136.663 186.587 135.636 190.823 134.501C258.92 116.4 314.343 76.5885 338.989 28.0907C343.469 19.2562 346.995 9.99471 349.549 0.5H0V266.147ZM1470.66 235.373C1471.33 236.994 1471.67 238.345 1471.67 239.426C1471.67 241.993 1470.59 244.155 1468.43 245.911C1466.4 247.667 1464.1 248.546 1461.54 248.546C1459.78 248.546 1458.09 248.073 1456.47 247.127C1454.98 246.046 1453.84 244.56 1453.02 242.669L1439.65 212.27H1365.48L1352.1 242.668C1351.29 244.56 1350.08 246.046 1348.45 247.127C1346.83 248.073 1345.14 248.546 1343.39 248.546C1340.69 248.546 1338.25 247.667 1336.09 245.911C1334.07 244.155 1333.05 241.993 1333.05 239.426C1333.05 238.345 1333.39 236.994 1334.07 235.373L1391.21 110.335C1392.16 108.173 1393.65 106.484 1395.67 105.268C1397.83 104.053 1400.06 103.445 1402.36 103.445C1404.66 103.445 1406.82 104.053 1408.85 105.268C1411.01 106.484 1412.56 108.173 1413.51 110.335L1470.66 235.373ZM1372.98 195.653H1432.35L1402.56 128.574L1372.98 195.653ZM1544.09 146.205C1552.74 146.205 1560.37 148.299 1566.99 152.487C1573.61 156.675 1578.75 162.62 1582.39 170.321C1586.18 178.022 1588.07 187.006 1588.07 197.274C1588.07 207.407 1586.18 216.391 1582.39 224.227C1578.75 232.063 1573.55 238.143 1566.79 242.466C1560.17 246.789 1552.6 248.951 1544.09 248.951C1536.66 248.951 1530.11 247.397 1524.44 244.29C1518.76 241.047 1514.44 236.454 1511.47 230.509V238.615C1511.47 241.588 1510.52 244.02 1508.63 245.911C1506.87 247.667 1504.44 248.546 1501.33 248.546C1498.22 248.546 1495.73 247.667 1493.83 245.911C1491.94 244.02 1491 241.588 1491 238.615V113.375C1491 110.402 1491.94 108.038 1493.83 106.282C1495.86 104.525 1498.43 103.647 1501.54 103.647C1504.51 103.647 1506.87 104.525 1508.63 106.282C1510.52 107.903 1511.47 110.132 1511.47 112.969V164.849C1514.44 158.905 1518.76 154.311 1524.44 151.069C1530.11 147.826 1536.66 146.205 1544.09 146.205ZM1539.23 232.738C1548.01 232.738 1554.83 229.631 1559.7 223.416C1564.7 217.202 1567.2 208.487 1567.2 197.274C1567.2 186.195 1564.76 177.684 1559.9 171.739C1555.04 165.66 1548.15 162.62 1539.23 162.62C1530.31 162.62 1523.42 165.66 1518.56 171.739C1513.83 177.819 1511.47 186.466 1511.47 197.679C1511.47 208.893 1513.83 217.539 1518.56 223.619C1523.42 229.699 1530.31 232.738 1539.23 232.738ZM1653.69 248.951C1643.97 248.951 1635.39 246.857 1627.96 242.669C1620.66 238.48 1614.99 232.536 1610.93 224.835C1607.01 216.999 1605.06 207.947 1605.06 197.679C1605.06 187.276 1607.01 178.224 1610.93 170.523C1614.99 162.687 1620.66 156.675 1627.96 152.487C1635.39 148.299 1643.97 146.205 1653.69 146.205C1663.42 146.205 1671.93 148.299 1679.23 152.487C1686.66 156.675 1692.33 162.687 1696.25 170.523C1700.3 178.224 1702.33 187.276 1702.33 197.679C1702.33 207.947 1700.3 216.999 1696.25 224.835C1692.33 232.536 1686.66 238.48 1679.23 242.669C1671.93 246.857 1663.42 248.951 1653.69 248.951ZM1653.69 232.738C1662.74 232.738 1669.63 229.766 1674.36 223.822C1679.23 217.877 1681.66 209.163 1681.66 197.679C1681.66 186.331 1679.23 177.684 1674.36 171.739C1669.5 165.66 1662.61 162.62 1653.69 162.62C1644.78 162.62 1637.89 165.66 1633.02 171.739C1628.16 177.684 1625.73 186.331 1625.73 197.679C1625.73 209.163 1628.09 217.877 1632.82 223.822C1637.68 229.766 1644.64 232.738 1653.69 232.738ZM1801.72 146.61C1804.83 146.61 1807.26 147.488 1809.02 149.245C1810.91 151.001 1811.85 153.433 1811.85 156.54V239.021C1811.85 241.858 1810.91 244.155 1809.02 245.911C1807.13 247.667 1804.63 248.546 1801.52 248.546C1798.68 248.546 1796.39 247.735 1794.63 246.114C1792.87 244.357 1791.99 242.061 1791.99 239.223V231.523C1788.89 237.197 1784.56 241.52 1779.02 244.492C1773.62 247.465 1767.54 248.951 1760.79 248.951C1736.74 248.951 1724.71 235.711 1724.71 209.23V156.54C1724.71 153.433 1725.59 151.001 1727.35 149.245C1729.24 147.488 1731.81 146.61 1735.05 146.61C1738.16 146.61 1740.59 147.488 1742.34 149.245C1744.24 151.001 1745.18 153.433 1745.18 156.54V209.028C1745.18 216.999 1746.8 222.876 1750.05 226.659C1753.29 230.442 1758.29 232.333 1765.04 232.333C1773.01 232.333 1779.36 229.766 1784.09 224.632C1788.96 219.498 1791.39 212.676 1791.39 204.164V156.54C1791.39 153.568 1792.33 151.204 1794.22 149.447C1796.12 147.556 1798.61 146.61 1801.72 146.61ZM1888.93 232.941C1891.9 233.211 1894 234.022 1895.21 235.373C1896.57 236.589 1897.24 238.345 1897.24 240.642C1897.24 243.344 1896.16 245.438 1894 246.924C1891.97 248.275 1888.93 248.816 1884.88 248.546L1879.41 248.14C1868.46 247.33 1860.29 244.02 1854.89 238.21C1849.48 232.266 1846.78 223.551 1846.78 212.068V164.444H1834.62C1828.68 164.444 1825.7 161.809 1825.7 156.54C1825.7 154.108 1826.45 152.217 1827.93 150.866C1829.55 149.38 1831.78 148.637 1834.62 148.637H1846.78V127.763C1846.78 124.656 1847.66 122.224 1849.41 120.468C1851.31 118.711 1853.81 117.833 1856.91 117.833C1860.02 117.833 1862.52 118.711 1864.41 120.468C1866.3 122.224 1867.25 124.656 1867.25 127.763V148.637H1887.31C1890.15 148.637 1892.31 149.38 1893.8 150.866C1895.42 152.217 1896.23 154.108 1896.23 156.54C1896.23 159.107 1895.42 161.066 1893.8 162.417C1892.31 163.768 1890.15 164.444 1887.31 164.444H1867.25V213.486C1867.25 219.836 1868.53 224.497 1871.1 227.47C1873.8 230.442 1877.85 232.131 1883.26 232.536L1888.93 232.941Z" fill="black"/>
</svg>
