<svg width="1366" height="768" viewBox="0 0 1366 768" fill="none" xmlns="http://www.w3.org/2000/svg">
<g clip-path="url(#clip0_201_4947)">
<rect width="1366" height="768" fill="white"/>
<mask id="mask0_201_4947" style="mask-type:alpha" maskUnits="userSpaceOnUse" x="-9" y="0" width="1375" height="1043">
<rect x="-9" width="1375" height="1043" fill="#D9D9D9"/>
</mask>
<g mask="url(#mask0_201_4947)">
<path d="M-703.545 0.151895L2060.45 0L2060.55 1084.85L-703.448 1085" fill="#E6FFF3"/>
<path d="M1281.07 -412.355C1292.14 -401.375 1300.91 -388.339 1306.9 -373.992C1312.89 -359.645 1315.97 -344.268 1315.97 -328.739C1315.97 -313.21 1312.89 -297.834 1306.9 -283.487C1300.91 -269.14 1292.14 -256.104 1281.07 -245.124L865.066 168.084L870.85 173.823L1287.04 -239.394C1311.09 -263.26 1324.23 -294.994 1324.23 -328.744C1324.23 -362.495 1310.88 -394.219 1286.83 -418.084" fill="white"/>
<path d="M1106.45 -418.084L636.407 48.7015C627.428 57.6048 619.836 67.788 613.883 78.9152L619.993 84.987C625.705 73.6787 633.21 63.3547 642.219 54.4093L1112.23 -412.377" fill="white"/>
<path d="M726.213 256.594C699.068 256.588 672.747 247.277 651.641 230.215C630.536 213.154 615.923 189.374 610.242 162.844H601.826C607.554 191.586 623.088 217.45 645.774 236.019C668.459 254.587 696.891 264.709 726.213 264.656C728.533 264.656 730.041 264.622 733.446 264.5V256.376C730.041 256.507 728.533 256.594 726.213 256.594Z" fill="white"/>
<path d="M1260.56 -393.13C1295.88 -358.024 1295.89 -301.102 1260.56 -265.986L790.401 201.388C755.081 236.5 697.812 236.505 662.482 201.388C627.157 166.282 627.152 109.355 662.482 74.2435L1132.65 -393.121" fill="white"/>
<path d="M357.139 765.188C454.247 668.769 611.705 668.755 708.823 765.163C805.946 861.572 805.965 1017.88 708.823 1114.3L-583.762 2397.72" stroke="white" stroke-width="15.28" stroke-miterlimit="10"/>
<path d="M2688.66 -627.949L1300.79 750.913C1196.53 854.506 1027.47 854.515 923.191 750.942C818.909 647.37 818.899 479.43 923.166 375.838L2311.01 -1003" fill="white"/>
<path d="M1455.85 -1157.72L68.3125 220.737" stroke="white" stroke-width="16.67" stroke-miterlimit="10"/>
</g>
</g>
<defs>
<clipPath id="clip0_201_4947">
<rect width="1366" height="768" fill="white"/>
</clipPath>
</defs>
</svg>
