<svg width="972" height="1032" viewBox="0 0 972 1032" fill="none" xmlns="http://www.w3.org/2000/svg">
<path d="M1185 593C1185 920.228 919.729 1185.5 592.501 1185.5C265.274 1185.5 0.00340967 920.229 0.00219656 593.002C0.000983435 265.773 265.272 0.5 592.501 0.5C919.729 0.5 1185 265.772 1185 593Z" fill="url(#paint0_radial)"/>
<rect x="629" y="113.5" width="20" height="20" fill="#FECDCD"/>
<rect x="629" y="160.5" width="20" height="20" fill="#FECDCD"/>
<rect x="629" y="206.5" width="20" height="20" fill="#FECDCD"/>
<rect x="629" y="253.5" width="20" height="20" fill="#FECDCD"/>
<rect x="629" y="299.5" width="20" height="20" fill="#FECDCD"/>
<rect x="676" y="113.5" width="20" height="20" fill="#FECDCD"/>
<rect x="676" y="160.5" width="20" height="20" fill="#FECDCD"/>
<rect x="676" y="206.5" width="20" height="20" fill="#FECDCD"/>
<rect x="676" y="253.5" width="20" height="20" fill="#FECDCD"/>
<rect x="676" y="299.5" width="20" height="20" fill="#FECDCD"/>
<rect x="722" y="113.5" width="20" height="20" fill="#FECDCD"/>
<rect x="722" y="160.5" width="20" height="20" fill="#FECDCD"/>
<rect x="722" y="206.5" width="20" height="20" fill="#FECDCD"/>
<rect x="722" y="253.5" width="20" height="20" fill="#FECDCD"/>
<rect x="722" y="299.5" width="20" height="20" fill="#FECDCD"/>
<rect x="769" y="113.5" width="20" height="20" fill="#FECDCD"/>
<rect x="769" y="160.5" width="20" height="20" fill="#FECDCD"/>
<rect x="769" y="206.5" width="20" height="20" fill="#FECDCD"/>
<rect x="769" y="253.5" width="20" height="20" fill="#FECDCD"/>
<rect x="769" y="299.5" width="20" height="20" fill="#FECDCD"/>
<rect x="815" y="113.5" width="20" height="20" fill="#FECDCD"/>
<rect x="815" y="160.5" width="20" height="20" fill="#FECDCD"/>
<rect x="815" y="206.5" width="20" height="20" fill="#FECDCD"/>
<rect x="815" y="253.5" width="20" height="20" fill="#FECDCD"/>
<rect x="815" y="299.5" width="20" height="20" fill="#FECDCD"/>
<rect x="259" y="633.5" width="20" height="20" fill="#FECDCD"/>
<rect x="259" y="680.5" width="20" height="20" fill="#FECDCD"/>
<rect x="259" y="726.5" width="20" height="20" fill="#FECDCD"/>
<rect x="259" y="773.5" width="20" height="20" fill="#FECDCD"/>
<rect x="259" y="819.5" width="20" height="20" fill="#FECDCD"/>
<rect x="306" y="633.5" width="20" height="20" fill="#FECDCD"/>
<rect x="306" y="680.5" width="20" height="20" fill="#FECDCD"/>
<rect x="306" y="726.5" width="20" height="20" fill="#FECDCD"/>
<rect x="306" y="773.5" width="20" height="20" fill="#FECDCD"/>
<rect x="306" y="819.5" width="20" height="20" fill="#FECDCD"/>
<rect x="352" y="633.5" width="20" height="20" fill="#FECDCD"/>
<rect x="352" y="680.5" width="20" height="20" fill="#FECDCD"/>
<rect x="352" y="726.5" width="20" height="20" fill="#FECDCD"/>
<rect x="352" y="773.5" width="20" height="20" fill="#FECDCD"/>
<rect x="352" y="819.5" width="20" height="20" fill="#FECDCD"/>
<rect x="399" y="633.5" width="20" height="20" fill="#FECDCD"/>
<rect x="399" y="680.5" width="20" height="20" fill="#FECDCD"/>
<rect x="399" y="726.5" width="20" height="20" fill="#FECDCD"/>
<rect x="399" y="773.5" width="20" height="20" fill="#FECDCD"/>
<rect x="399" y="819.5" width="20" height="20" fill="#FECDCD"/>
<rect x="445" y="633.5" width="20" height="20" fill="#FECDCD"/>
<rect x="445" y="680.5" width="20" height="20" fill="#FECDCD"/>
<rect x="445" y="726.5" width="20" height="20" fill="#FECDCD"/>
<rect x="445" y="773.5" width="20" height="20" fill="#FECDCD"/>
<rect x="445" y="819.5" width="20" height="20" fill="#FECDCD"/>
<defs>
<radialGradient id="paint0_radial" cx="0" cy="0" r="1" gradientUnits="userSpaceOnUse" gradientTransform="translate(566.2 503.291) rotate(90.947) scale(353.232)">
<stop stop-color="#FD4F4F"/>
<stop offset="1" stop-color="#FEAEAE" stop-opacity="0.03"/>
</radialGradient>
</defs>
</svg>
