<svg width="972" height="534" viewBox="0 0 972 534" fill="none" xmlns="http://www.w3.org/2000/svg">
<rect x="-3.21484" y="0.444092" width="975.215" height="502.916" fill="url(#paint0_linear)"/>
<path d="M184.848 277.708C188.368 277.708 191.248 278.908 193.488 281.308C195.728 283.548 196.848 286.508 196.848 290.188L196.848 437.548C196.848 441.228 195.808 444.108 193.728 446.188C191.808 448.268 189.088 449.308 185.568 449.308C182.208 449.308 179.568 448.268 177.648 446.188C175.728 444.108 174.768 441.228 174.768 437.548V325.948L127.728 415.468C124.688 421.068 120.768 423.868 115.968 423.868C111.168 423.868 107.248 421.068 104.208 415.468L56.9277 326.908L56.9277 437.548C56.9277 441.228 55.9677 444.108 54.0477 446.188C52.1277 448.268 49.4077 449.308 45.8877 449.308C42.5277 449.308 39.8077 448.268 37.7277 446.188C35.8077 443.948 34.8477 441.068 34.8477 437.548L34.8477 290.188C34.8477 286.508 35.9677 283.548 38.2077 281.308C40.4477 278.908 43.3277 277.708 46.8477 277.708C51.8077 277.708 55.8077 280.588 58.8477 286.348L116.208 396.028L173.088 286.348C176.128 280.588 180.048 277.708 184.848 277.708ZM245.765 449.308C242.245 449.308 239.285 448.348 236.885 446.428C234.645 444.508 233.525 441.628 233.525 437.788V340.348C233.525 336.508 234.645 333.628 236.885 331.708C239.285 329.628 242.245 328.588 245.765 328.588C249.285 328.588 252.165 329.628 254.405 331.708C256.645 333.628 257.765 336.508 257.765 340.348V437.788C257.765 441.628 256.645 444.508 254.405 446.428C252.165 448.348 249.285 449.308 245.765 449.308ZM245.765 305.068C241.125 305.068 237.445 303.788 234.725 301.228C232.005 298.668 230.645 295.308 230.645 291.148C230.645 286.988 232.005 283.708 234.725 281.308C237.445 278.748 241.125 277.468 245.765 277.468C250.245 277.468 253.845 278.748 256.565 281.308C259.445 283.708 260.885 286.988 260.885 291.148C260.885 295.308 259.525 298.668 256.805 301.228C254.085 303.788 250.405 305.068 245.765 305.068ZM332.45 449.788C316.13 449.788 302.77 446.428 292.37 439.708C289.49 437.948 287.41 436.108 286.13 434.188C285.01 432.268 284.45 430.108 284.45 427.708C284.45 425.148 285.17 422.988 286.61 421.228C288.05 419.468 289.89 418.588 292.13 418.588C294.21 418.588 297.49 419.868 301.97 422.428C306.77 424.988 311.41 427.068 315.89 428.668C320.53 430.268 326.29 431.068 333.17 431.068C340.85 431.068 346.85 429.708 351.17 426.988C355.49 424.268 357.65 420.428 357.65 415.468C357.65 412.268 356.77 409.708 355.01 407.788C353.41 405.868 350.53 404.188 346.37 402.748C342.21 401.148 336.05 399.468 327.89 397.708C313.81 394.668 303.65 390.588 297.41 385.468C291.33 380.188 288.29 373.068 288.29 364.108C288.29 357.228 290.29 351.068 294.29 345.628C298.29 340.028 303.81 335.708 310.85 332.668C317.89 329.628 325.89 328.108 334.85 328.108C341.25 328.108 347.49 328.988 353.57 330.748C359.65 332.348 365.01 334.748 369.65 337.948C374.93 341.468 377.57 345.548 377.57 350.188C377.57 352.748 376.77 354.908 375.17 356.668C373.73 358.428 371.97 359.308 369.89 359.308C368.45 359.308 367.01 358.988 365.57 358.348C364.13 357.708 362.21 356.668 359.81 355.228C355.49 352.668 351.41 350.668 347.57 349.228C343.89 347.788 339.25 347.068 333.65 347.068C326.93 347.068 321.49 348.508 317.33 351.388C313.33 354.268 311.33 358.188 311.33 363.148C311.33 367.628 313.17 371.148 316.85 373.708C320.69 376.108 327.81 378.428 338.21 380.668C348.93 382.908 357.33 385.468 363.41 388.348C369.49 391.228 373.81 394.828 376.37 399.148C379.09 403.308 380.45 408.668 380.45 415.228C380.45 425.628 376.05 434.028 367.25 440.428C358.61 446.668 347.01 449.788 332.45 449.788ZM448.231 449.788C431.911 449.788 418.551 446.428 408.151 439.708C405.271 437.948 403.191 436.108 401.911 434.188C400.791 432.268 400.231 430.108 400.231 427.708C400.231 425.148 400.951 422.988 402.391 421.228C403.831 419.468 405.671 418.588 407.911 418.588C409.991 418.588 413.271 419.868 417.751 422.428C422.551 424.988 427.191 427.068 431.671 428.668C436.311 430.268 442.071 431.068 448.951 431.068C456.631 431.068 462.631 429.708 466.951 426.988C471.271 424.268 473.431 420.428 473.431 415.468C473.431 412.268 472.551 409.708 470.791 407.788C469.191 405.868 466.311 404.188 462.151 402.748C457.991 401.148 451.831 399.468 443.671 397.708C429.591 394.668 419.431 390.588 413.191 385.468C407.111 380.188 404.071 373.068 404.071 364.108C404.071 357.228 406.071 351.068 410.071 345.628C414.071 340.028 419.591 335.708 426.631 332.668C433.671 329.628 441.671 328.108 450.631 328.108C457.031 328.108 463.271 328.988 469.351 330.748C475.431 332.348 480.791 334.748 485.431 337.948C490.711 341.468 493.351 345.548 493.351 350.188C493.351 352.748 492.551 354.908 490.951 356.668C489.511 358.428 487.751 359.308 485.671 359.308C484.231 359.308 482.791 358.988 481.351 358.348C479.911 357.708 477.991 356.668 475.591 355.228C471.271 352.668 467.191 350.668 463.351 349.228C459.671 347.788 455.031 347.068 449.431 347.068C442.711 347.068 437.271 348.508 433.111 351.388C429.111 354.268 427.111 358.188 427.111 363.148C427.111 367.628 428.951 371.148 432.631 373.708C436.471 376.108 443.591 378.428 453.991 380.668C464.711 382.908 473.111 385.468 479.191 388.348C485.271 391.228 489.591 394.828 492.151 399.148C494.871 403.308 496.231 408.668 496.231 415.228C496.231 425.628 491.831 434.028 483.031 440.428C474.391 446.668 462.791 449.788 448.231 449.788ZM535.452 449.308C531.932 449.308 528.972 448.348 526.572 446.428C524.332 444.508 523.212 441.628 523.212 437.788V340.348C523.212 336.508 524.332 333.628 526.572 331.708C528.972 329.628 531.932 328.588 535.452 328.588C538.972 328.588 541.852 329.628 544.092 331.708C546.332 333.628 547.452 336.508 547.452 340.348V437.788C547.452 441.628 546.332 444.508 544.092 446.428C541.852 448.348 538.972 449.308 535.452 449.308ZM535.452 305.068C530.812 305.068 527.132 303.788 524.412 301.228C521.692 298.668 520.332 295.308 520.332 291.148C520.332 286.988 521.692 283.708 524.412 281.308C527.132 278.748 530.812 277.468 535.452 277.468C539.932 277.468 543.532 278.748 546.252 281.308C549.132 283.708 550.572 286.988 550.572 291.148C550.572 295.308 549.212 298.668 546.492 301.228C543.772 303.788 540.092 305.068 535.452 305.068ZM632.217 449.788C620.697 449.788 610.537 447.308 601.737 442.348C593.097 437.388 586.377 430.348 581.577 421.228C576.937 411.948 574.617 401.228 574.617 389.068C574.617 376.748 576.937 366.028 581.577 356.908C586.377 347.628 593.097 340.508 601.737 335.548C610.537 330.588 620.697 328.108 632.217 328.108C643.737 328.108 653.817 330.588 662.457 335.548C671.257 340.508 677.977 347.628 682.617 356.908C687.417 366.028 689.817 376.748 689.817 389.068C689.817 401.228 687.417 411.948 682.617 421.228C677.977 430.348 671.257 437.388 662.457 442.348C653.817 447.308 643.737 449.788 632.217 449.788ZM632.217 430.588C642.937 430.588 651.097 427.068 656.697 420.028C662.457 412.988 665.337 402.668 665.337 389.068C665.337 375.628 662.457 365.388 656.697 358.348C650.937 351.148 642.777 347.548 632.217 347.548C621.657 347.548 613.497 351.148 607.737 358.348C601.977 365.388 599.097 375.628 599.097 389.068C599.097 402.668 601.897 412.988 607.497 420.028C613.257 427.068 621.497 430.588 632.217 430.588ZM779.926 328.108C807.926 328.108 821.926 343.868 821.926 375.388V437.788C821.926 441.468 820.806 444.348 818.566 446.428C816.486 448.348 813.526 449.308 809.686 449.308C806.006 449.308 803.046 448.268 800.806 446.188C798.726 444.108 797.686 441.308 797.686 437.788V376.588C797.686 366.668 795.686 359.388 791.686 354.748C787.846 350.108 781.766 347.788 773.446 347.788C763.686 347.788 755.846 350.828 749.926 356.908C744.006 362.988 741.046 371.148 741.046 381.388V437.788C741.046 441.308 739.926 444.108 737.686 446.188C735.606 448.268 732.726 449.308 729.046 449.308C725.366 449.308 722.406 448.268 720.166 446.188C717.926 444.108 716.806 441.308 716.806 437.788V340.108C716.806 336.748 717.926 334.028 720.166 331.948C722.566 329.708 725.526 328.588 729.046 328.588C732.566 328.588 735.366 329.628 737.446 331.708C739.526 333.788 740.566 336.508 740.566 339.868V349.708C744.406 342.668 749.766 337.308 756.646 333.628C763.526 329.948 771.286 328.108 779.926 328.108Z" fill="#E0E0E0"/>
<defs>
<linearGradient id="paint0_linear" x1="60.8874" y1="251.902" x2="791.177" y2="251.902" gradientUnits="userSpaceOnUse">
<stop stop-color="#F2F2F2"/>
<stop offset="1" stop-color="#F2F2F2" stop-opacity="0"/>
</linearGradient>
</defs>
</svg>
