<svg width="540" height="366" viewBox="0 0 540 366" fill="none" xmlns="http://www.w3.org/2000/svg">
<g clip-path="url(#clip0_306_4938)">
<rect width="540" height="366" rx="40" fill="white"/>
<path d="M307.141 -2.23472C310.274 -15.9467 318.013 -28.17 329.066 -36.8646C340.118 -45.5592 353.816 -50.1993 367.873 -50.0103L368.844 -54.2617C353.663 -54.6821 338.806 -49.8173 326.81 -40.4981C314.814 -31.1789 306.423 -17.9831 303.069 -3.16422C302.801 -1.99202 302.644 -1.22633 302.313 0.507894L306.418 1.44469C306.744 -0.29066 306.874 -1.06252 307.141 -2.23472Z" fill="#E0FFF1"/>
<mask id="mask0_306_4938" style="mask-type:alpha" maskUnits="userSpaceOnUse" x="0" y="0" width="540" height="366">
<rect width="540" height="366" rx="40" fill="white"/>
</mask>
<g mask="url(#mask0_306_4938)">
<path d="M-37.359 140.508C-41.2271 137.384 -44.4363 133.534 -46.8032 129.178C-49.1701 124.821 -50.6484 120.043 -51.1537 115.116C-51.659 110.189 -51.1814 105.21 -49.7482 100.464C-48.3149 95.7173 -45.9542 91.2959 -42.8006 87.4523L75.7349 -57.1785L73.7132 -58.8111L-44.881 85.8288C-51.7332 94.1829 -54.8708 104.678 -53.7726 115.386C-52.6744 126.094 -47.4066 135.724 -38.9997 142.513" fill="#CCFFE7"/>
<path d="M-7.68524 171.415L126.251 8.02729C128.81 4.91046 130.887 1.43269 132.414 -2.29123L130.278 -4.01877C128.833 -0.245213 126.788 3.27437 124.221 6.40554L-9.70558 169.792" fill="#CCFFE7"/>
<path d="M-57.3898 168.513C-69.7394 158.524 -71.5932 140.465 -61.527 128.175L72.4267 -35.4028C82.4899 -47.6915 100.659 -49.5566 113.01 -39.5652C125.36 -29.5768 127.214 -11.5163 117.148 0.772743L-16.8111 164.348" fill="#CCFFE7"/>
</g>
</g>
<defs>
<clipPath id="clip0_306_4938">
<rect width="540" height="366" fill="white"/>
</clipPath>
</defs>
</svg>
