<svg width="904" height="555" viewBox="0 0 904 555" fill="none" xmlns="http://www.w3.org/2000/svg">
<rect x="0.890625" y="0.42627" width="906.968" height="502.916" fill="url(#paint0_linear)"/>
<path d="M343.28 305.187C345.36 300.707 348.8 298.467 353.6 298.467C356.8 298.467 359.68 299.587 362.24 301.827C364.8 303.907 366.08 306.467 366.08 309.507C366.08 310.627 365.68 312.147 364.88 314.067L297.2 462.387C296.08 464.947 294.32 466.947 291.92 468.387C289.52 469.827 286.96 470.547 284.24 470.547C281.52 470.547 278.88 469.827 276.32 468.387C273.92 466.947 272.16 464.947 271.04 462.387L203.6 314.067C202.8 312.147 202.4 310.627 202.4 309.507C202.4 306.307 203.68 303.667 206.24 301.587C208.96 299.507 211.92 298.467 215.12 298.467C220.08 298.467 223.6 300.707 225.68 305.187L284.48 436.947L343.28 305.187ZM409.509 470.307C405.989 470.307 403.029 469.347 400.629 467.427C398.389 465.507 397.269 462.627 397.269 458.787L397.269 361.347C397.269 357.507 398.389 354.627 400.629 352.707C403.029 350.627 405.989 349.587 409.509 349.587C413.029 349.587 415.909 350.627 418.149 352.707C420.389 354.627 421.509 357.507 421.509 361.347L421.509 458.787C421.509 462.627 420.389 465.507 418.149 467.427C415.909 469.347 413.029 470.307 409.509 470.307ZM409.509 326.067C404.869 326.067 401.189 324.787 398.469 322.227C395.749 319.667 394.389 316.307 394.389 312.147C394.389 307.987 395.749 304.707 398.469 302.307C401.189 299.747 404.869 298.467 409.509 298.467C413.989 298.467 417.589 299.747 420.309 302.307C423.189 304.707 424.629 307.987 424.629 312.147C424.629 316.307 423.269 319.667 420.549 322.227C417.829 324.787 414.149 326.067 409.509 326.067ZM496.194 470.787C479.874 470.787 466.514 467.427 456.114 460.707C453.234 458.947 451.154 457.107 449.874 455.187C448.754 453.267 448.194 451.107 448.194 448.707C448.194 446.147 448.914 443.987 450.354 442.227C451.794 440.467 453.634 439.587 455.874 439.587C457.954 439.587 461.234 440.867 465.714 443.427C470.514 445.987 475.154 448.067 479.634 449.667C484.274 451.267 490.034 452.067 496.914 452.067C504.594 452.067 510.594 450.707 514.914 447.987C519.234 445.267 521.394 441.427 521.394 436.467C521.394 433.267 520.514 430.707 518.754 428.787C517.154 426.867 514.274 425.187 510.114 423.747C505.954 422.147 499.794 420.467 491.634 418.707C477.554 415.667 467.394 411.587 461.154 406.467C455.074 401.187 452.034 394.067 452.034 385.107C452.034 378.227 454.034 372.067 458.034 366.627C462.034 361.027 467.554 356.707 474.594 353.667C481.634 350.627 489.634 349.107 498.594 349.107C504.994 349.107 511.234 349.987 517.314 351.747C523.394 353.347 528.754 355.747 533.394 358.947C538.674 362.467 541.314 366.547 541.314 371.187C541.314 373.747 540.514 375.907 538.914 377.667C537.474 379.427 535.714 380.307 533.634 380.307C532.194 380.307 530.754 379.987 529.314 379.347C527.874 378.707 525.954 377.667 523.554 376.227C519.234 373.667 515.154 371.667 511.314 370.227C507.634 368.787 502.994 368.067 497.394 368.067C490.674 368.067 485.234 369.507 481.074 372.387C477.074 375.267 475.074 379.187 475.074 384.147C475.074 388.627 476.914 392.147 480.594 394.707C484.434 397.107 491.554 399.427 501.954 401.667C512.674 403.907 521.074 406.467 527.154 409.347C533.234 412.227 537.554 415.827 540.114 420.147C542.834 424.307 544.194 429.667 544.194 436.227C544.194 446.627 539.794 455.027 530.994 461.427C522.354 467.667 510.754 470.787 496.194 470.787ZM583.415 470.307C579.895 470.307 576.935 469.347 574.535 467.427C572.295 465.507 571.175 462.627 571.175 458.787L571.175 361.347C571.175 357.507 572.295 354.627 574.535 352.707C576.935 350.627 579.895 349.587 583.415 349.587C586.935 349.587 589.815 350.627 592.055 352.707C594.295 354.627 595.415 357.507 595.415 361.347L595.415 458.787C595.415 462.627 594.295 465.507 592.055 467.427C589.815 469.347 586.935 470.307 583.415 470.307ZM583.415 326.067C578.775 326.067 575.095 324.787 572.375 322.227C569.655 319.667 568.295 316.307 568.295 312.147C568.295 307.987 569.655 304.707 572.375 302.307C575.095 299.747 578.775 298.467 583.415 298.467C587.895 298.467 591.495 299.747 594.215 302.307C597.095 304.707 598.535 307.987 598.535 312.147C598.535 316.307 597.175 319.667 594.455 322.227C591.735 324.787 588.055 326.067 583.415 326.067ZM680.18 470.787C668.66 470.787 658.5 468.307 649.7 463.347C641.06 458.387 634.34 451.347 629.54 442.227C624.9 432.947 622.58 422.227 622.58 410.067C622.58 397.747 624.9 387.027 629.54 377.907C634.34 368.627 641.06 361.507 649.7 356.547C658.5 351.587 668.66 349.107 680.18 349.107C691.7 349.107 701.78 351.587 710.42 356.547C719.22 361.507 725.94 368.627 730.58 377.907C735.38 387.027 737.78 397.747 737.78 410.067C737.78 422.227 735.38 432.947 730.58 442.227C725.94 451.347 719.22 458.387 710.42 463.347C701.78 468.307 691.7 470.787 680.18 470.787ZM680.18 451.587C690.9 451.587 699.06 448.067 704.66 441.027C710.42 433.987 713.3 423.667 713.3 410.067C713.3 396.627 710.42 386.387 704.66 379.347C698.9 372.147 690.74 368.547 680.18 368.547C669.62 368.547 661.46 372.147 655.7 379.347C649.94 386.387 647.06 396.627 647.06 410.067C647.06 423.667 649.86 433.987 655.46 441.027C661.22 448.067 669.46 451.587 680.18 451.587ZM827.889 349.107C855.889 349.107 869.889 364.867 869.889 396.387L869.889 458.787C869.889 462.467 868.769 465.347 866.529 467.427C864.449 469.347 861.489 470.307 857.649 470.307C853.969 470.307 851.009 469.267 848.769 467.187C846.689 465.107 845.649 462.307 845.649 458.787L845.649 397.587C845.649 387.667 843.649 380.387 839.649 375.747C835.809 371.107 829.729 368.787 821.409 368.787C811.649 368.787 803.809 371.827 797.889 377.907C791.969 383.987 789.009 392.147 789.009 402.387L789.009 458.787C789.009 462.307 787.889 465.107 785.649 467.187C783.569 469.267 780.689 470.307 777.009 470.307C773.329 470.307 770.369 469.267 768.129 467.187C765.889 465.107 764.769 462.307 764.769 458.787L764.769 361.107C764.769 357.747 765.889 355.027 768.129 352.947C770.529 350.707 773.489 349.587 777.009 349.587C780.529 349.587 783.329 350.627 785.409 352.707C787.489 354.787 788.529 357.507 788.529 360.867L788.529 370.707C792.369 363.667 797.729 358.307 804.609 354.627C811.489 350.947 819.249 349.107 827.889 349.107Z" fill="#E0E0E0"/>
<defs>
<linearGradient id="paint0_linear" x1="907.859" y1="251.884" x2="162.82" y2="251.884" gradientUnits="userSpaceOnUse">
<stop stop-color="#F2F2F2"/>
<stop offset="1" stop-color="#F2F2F2" stop-opacity="0"/>
</linearGradient>
</defs>
</svg>
